<svg width="24" height="25" viewBox="0 0 24 25" fill="none" xmlns="http://www.w3.org/2000/svg">
<g id="Everest / Action / Search">
<g id="Artwork">
<g id="Group">
<path id="Vector" d="M19.4282 19.9269C19.7445 19.6129 19.7475 19.1024 19.435 18.7847L14.8718 14.1454C15.6186 13.139 16.0658 11.8962 16.0658 10.5458C16.0658 7.2068 13.3649 4.5 10.033 4.5C6.70104 4.5 4 7.2068 4 10.5458C4 13.8847 6.70104 16.5915 10.033 16.5915C11.4334 16.5915 12.719 16.109 13.7428 15.3066L18.2806 19.9201C18.5952 20.2399 19.1099 20.243 19.4282 19.9269V19.9269ZM10.033 14.9689C7.59696 14.9689 5.61504 12.9847 5.61504 10.5458C5.61504 8.1068 7.59696 6.12264 10.033 6.12264C12.469 6.12264 14.4508 8.1068 14.4508 10.5458C14.4508 12.9847 12.469 14.9689 10.033 14.9689Z" fill="#959595"/>
</g>
</g>
</g>
</svg>
